<ttFont>
<head>
    <!-- Most of this table will be recalculated by the compiler -->
    <tableVersion value="1.0"/>
    <fontRevision value="2.32998657227"/>
    <checkSumAdjustment value="0xa57694c6"/>
    <magicNumber value="0x5f0f3cf5"/>
    <flags value="00000000 00011111"/>
    <unitsPerEm value="2048"/>
    <created value="Sun May 20 20:49:01 2012"/>
    <modified value="Sun May 20 20:49:01 2012"/>
    <xMin value="-39"/>
    <yMin value="-398"/>
    <xMax value="1797"/>
    <yMax value="1365"/>
    <macStyle value="00000000 00000000"/>
    <lowestRecPPEM value="8"/>
    <fontDirectionHint value="2"/>
    <indexToLocFormat value="0"/>
    <glyphDataFormat value="0"/>
  </head>
    <TTGlyph name=".notdef" xMin="68" yMin="0" xMax="612" yMax="1365">
      <contour>
        <pt x="68" y="0" on="1"/>
        <pt x="68" y="1365" on="1"/>
        <pt x="612" y="1365" on="1"/>
        <pt x="612" y="0" on="1"/>
      </contour>
      <contour>
        <pt x="136" y="68" on="1"/>
        <pt x="544" y="68" on="1"/>
        <pt x="544" y="1297" on="1"/>
        <pt x="136" y="1297" on="1"/>
      </contour>
    </TTGlyph>
    <TTGlyph name="A" xMin="-16" yMin="0" xMax="1280" yMax="1203">
      <contour>
        <pt x="-16" y="0" on="1"/>
        <pt x="-16" y="106" on="1"/>
        <pt x="89" y="106" on="1"/>
        <pt x="540" y="1203" on="1"/>
        <pt x="684" y="1203" on="1"/>
        <pt x="1162" y="106" on="1"/>
        <pt x="1280" y="106" on="1"/>
        <pt x="1280" y="0" on="1"/>
        <pt x="793" y="0" on="1"/>
        <pt x="793" y="106" on="1"/>
        <pt x="949" y="106" on="1"/>
        <pt x="849" y="336" on="1"/>
        <pt x="299" y="336" on="1"/>
        <pt x="205" y="106" on="1"/>
        <pt x="329" y="106" on="1"/>
        <pt x="329" y="0" on="1"/>
      </contour>
      <contour>
        <pt x="344" y="444" on="1"/>
        <pt x="802" y="444" on="1"/>
        <pt x="566" y="986" on="1"/>
      </contour>
    </TTGlyph>
    <TTGlyph name="B" xMin="119" yMin="0" xMax="1196" yMax="1203">
      <contour>
        <pt x="119" y="0" on="1"/>
        <pt x="119" y="106" on="1"/>
        <pt x="272" y="106" on="1"/>
        <pt x="272" y="1096" on="1"/>
        <pt x="119" y="1096" on="1"/>
        <pt x="119" y="1203" on="1"/>
        <pt x="743" y="1203" on="1"/>
        <pt x="1128" y="1203" on="0"/>
        <pt x="1128" y="905" on="1"/>
        <pt x="1128" y="798" on="0"/>
        <pt x="988" y="670" on="0"/>
        <pt x="853" y="656" on="1"/>
        <pt x="1021" y="637" on="0"/>
        <pt x="1196" y="479" on="0"/>
        <pt x="1196" y="347" on="1"/>
        <pt x="1196" y="168" on="0"/>
        <pt x="958" y="0" on="0"/>
        <pt x="706" y="0" on="1"/>
      </contour>
      <contour>
        <pt x="456" y="106" on="1"/>
        <pt x="703" y="106" on="1"/>
        <pt x="851" y="106" on="0"/>
        <pt x="989" y="224" on="0"/>
        <pt x="989" y="348" on="1"/>
        <pt x="989" y="352" on="1"/>
        <pt x="988" y="479" on="0"/>
        <pt x="852" y="596" on="0"/>
        <pt x="703" y="596" on="1"/>
        <pt x="456" y="596" on="1"/>
      </contour>
      <contour>
        <pt x="456" y="703" on="1"/>
        <pt x="663" y="703" on="1"/>
        <pt x="797" y="703" on="0"/>
        <pt x="920" y="798" on="0"/>
        <pt x="920" y="1003" on="0"/>
        <pt x="797" y="1096" on="0"/>
        <pt x="663" y="1096" on="1"/>
        <pt x="456" y="1096" on="1"/>
      </contour>
    </TTGlyph>
    <TTGlyph name="C" xMin="119" yMin="-35" xMax="1229" yMax="1235">
      <contour>
        <pt x="119" y="308" on="0"/>
        <pt x="119" y="885" on="0"/>
        <pt x="454" y="1235" on="0"/>
        <pt x="728" y="1235" on="1"/>
        <pt x="930" y="1235" on="0"/>
        <pt x="1192" y="1110" on="1"/>
        <pt x="1192" y="838" on="1"/>
        <pt x="1090" y="838" on="1"/>
        <pt x="1060" y="986" on="0"/>
        <pt x="880" y="1127" on="0"/>
        <pt x="525" y="1127" on="0"/>
        <pt x="326" y="859" on="0"/>
        <pt x="326" y="341" on="0"/>
        <pt x="524" y="73" on="0"/>
        <pt x="716" y="73" on="1"/>
        <pt x="984" y="73" on="0"/>
        <pt x="1063" y="323" on="1"/>
        <pt x="1229" y="323" on="1"/>
        <pt x="1118" y="-35" on="0"/>
        <pt x="715" y="-35" on="1"/>
        <pt x="468" y="-35" on="0"/>
        <pt x="304" y="127" on="1"/>
      </contour>
    </TTGlyph>
    <TTGlyph name="D" xMin="115" yMin="0" xMax="1295" yMax="1203">
      <contour>
        <pt x="116" y="0" on="1"/>
        <pt x="116" y="106" on="1"/>
        <pt x="268" y="106" on="1"/>
        <pt x="268" y="1096" on="1"/>
        <pt x="116" y="1096" on="1"/>
        <pt x="116" y="1203" on="1"/>
        <pt x="612" y="1203" on="1"/>
        <pt x="934" y="1203" on="0"/>
        <pt x="1294" y="886" on="0"/>
        <pt x="1294" y="319" on="0"/>
        <pt x="934" y="0" on="0"/>
        <pt x="612" y="0" on="1"/>
      </contour>
      <contour>
        <pt x="452" y="106" on="1"/>
        <pt x="602" y="106" on="1"/>
        <pt x="836" y="106" on="0"/>
        <pt x="1086" y="363" on="0"/>
        <pt x="1086" y="603" on="1"/>
        <pt x="1086" y="843" on="0"/>
        <pt x="838" y="1096" on="0"/>
        <pt x="602" y="1096" on="1"/>
        <pt x="452" y="1096" on="1"/>
      </contour>
    </TTGlyph>
    <TTGlyph name="E" xMin="138" yMin="0" xMax="1167" yMax="1203">
      <contour>
        <pt x="138" y="0" on="1"/>
        <pt x="138" y="106" on="1"/>
        <pt x="292" y="106" on="1"/>
        <pt x="292" y="1096" on="1"/>
        <pt x="138" y="1096" on="1"/>
        <pt x="138" y="1203" on="1"/>
        <pt x="1152" y="1203" on="1"/>
        <pt x="1152" y="925" on="1"/>
        <pt x="1042" y="925" on="1"/>
        <pt x="1042" y="1080" on="1"/>
        <pt x="476" y="1080" on="1"/>
        <pt x="476" y="710" on="1"/>
        <pt x="870" y="710" on="1"/>
        <pt x="870" y="848" on="1"/>
        <pt x="980" y="848" on="1"/>
        <pt x="980" y="448" on="1"/>
        <pt x="870" y="448" on="1"/>
        <pt x="870" y="587" on="1"/>
        <pt x="476" y="587" on="1"/>
        <pt x="476" y="123" on="1"/>
        <pt x="1056" y="123" on="1"/>
        <pt x="1056" y="278" on="1"/>
        <pt x="1166" y="278" on="1"/>
        <pt x="1166" y="0" on="1"/>
      </contour>
    </TTGlyph>
    <TTGlyph name="F" xMin="99" yMin="0" xMax="1128" yMax="1203">
      <contour>
        <pt x="100" y="0" on="1"/>
        <pt x="100" y="106" on="1"/>
        <pt x="252" y="106" on="1"/>
        <pt x="252" y="1096" on="1"/>
        <pt x="100" y="1096" on="1"/>
        <pt x="100" y="1203" on="1"/>
        <pt x="1128" y="1203" on="1"/>
        <pt x="1128" y="925" on="1"/>
        <pt x="1016" y="925" on="1"/>
        <pt x="1016" y="1080" on="1"/>
        <pt x="436" y="1080" on="1"/>
        <pt x="436" y="709" on="1"/>
        <pt x="846" y="709" on="1"/>
        <pt x="846" y="848" on="1"/>
        <pt x="958" y="848" on="1"/>
        <pt x="958" y="446" on="1"/>
        <pt x="846" y="446" on="1"/>
        <pt x="846" y="586" on="1"/>
        <pt x="436" y="586" on="1"/>
        <pt x="436" y="106" on="1"/>
        <pt x="628" y="106" on="1"/>
        <pt x="628" y="0" on="1"/>
      </contour>
    </TTGlyph>
    <TTGlyph name="G" xMin="138" yMin="-35" xMax="1276" yMax="1235">
      <contour>
        <pt x="138" y="601" on="1"/>
        <pt x="138" y="890" on="0"/>
        <pt x="477" y="1235" on="0"/>
        <pt x="765" y="1235" on="1"/>
        <pt x="974" y="1235" on="0"/>
        <pt x="1228" y="1118" on="1"/>
        <pt x="1228" y="843" on="1"/>
        <pt x="1127" y="843" on="1"/>
        <pt x="1099" y="988" on="0"/>
        <pt x="919" y="1127" on="0"/>
        <pt x="759" y="1127" on="1"/>
        <pt x="345" y="1127" on="0"/>
        <pt x="345" y="600" on="1"/>
        <pt x="345" y="340" on="0"/>
        <pt x="556" y="73" on="0"/>
        <pt x="940" y="73" on="0"/>
        <pt x="1092" y="158" on="1"/>
        <pt x="1092" y="452" on="1"/>
        <pt x="866" y="452" on="1"/>
        <pt x="866" y="560" on="1"/>
        <pt x="1276" y="560" on="1"/>
        <pt x="1276" y="109" on="1"/>
        <pt x="1056" y="-35" on="0"/>
        <pt x="769" y="-35" on="1"/>
        <pt x="765" y="-35" on="0"/>
        <pt x="761" y="-35" on="1"/>
        <pt x="477" y="-35" on="0"/>
        <pt x="138" y="311" on="0"/>
      </contour>
    </TTGlyph>
    <TTGlyph name="H" xMin="113" yMin="0" xMax="1410" yMax="1203">
      <contour>
        <pt x="113" y="0" on="1"/>
        <pt x="113" y="106" on="1"/>
        <pt x="266" y="106" on="1"/>
        <pt x="266" y="1096" on="1"/>
        <pt x="113" y="1096" on="1"/>
        <pt x="113" y="1203" on="1"/>
        <pt x="603" y="1203" on="1"/>
        <pt x="603" y="1096" on="1"/>
        <pt x="450" y="1096" on="1"/>
        <pt x="450" y="711" on="1"/>
        <pt x="1073" y="711" on="1"/>
        <pt x="1073" y="1096" on="1"/>
        <pt x="920" y="1096" on="1"/>
        <pt x="920" y="1203" on="1"/>
        <pt x="1410" y="1203" on="1"/>
        <pt x="1410" y="1096" on="1"/>
        <pt x="1257" y="1096" on="1"/>
        <pt x="1257" y="106" on="1"/>
        <pt x="1410" y="106" on="1"/>
        <pt x="1410" y="0" on="1"/>
        <pt x="920" y="0" on="1"/>
        <pt x="920" y="106" on="1"/>
        <pt x="1073" y="106" on="1"/>
        <pt x="1073" y="588" on="1"/>
        <pt x="450" y="588" on="1"/>
        <pt x="450" y="106" on="1"/>
        <pt x="603" y="106" on="1"/>
        <pt x="603" y="0" on="1"/>
      </contour>
    </TTGlyph>
    <TTGlyph name="I" xMin="113" yMin="0" xMax="603" yMax="1203">
      <contour>
        <pt x="113" y="0" on="1"/>
        <pt x="113" y="106" on="1"/>
        <pt x="266" y="106" on="1"/>
        <pt x="266" y="1096" on="1"/>
        <pt x="113" y="1096" on="1"/>
        <pt x="113" y="1203" on="1"/>
        <pt x="603" y="1203" on="1"/>
        <pt x="603" y="1096" on="1"/>
        <pt x="450" y="1096" on="1"/>
        <pt x="450" y="106" on="1"/>
        <pt x="603" y="106" on="1"/>
        <pt x="603" y="0" on="1"/>
      </contour>
    </TTGlyph>
    <TTGlyph name="J" xMin="-39" yMin="-343" xMax="717" yMax="1203">
      <contour>
        <pt x="-39" y="-40" on="1"/>
        <pt x="64" y="-40" on="1"/>
        <pt x="64" y="-236" on="0"/>
        <pt x="208" y="-236" on="1"/>
        <pt x="304" y="-236" on="0"/>
        <pt x="380" y="-119" on="0"/>
        <pt x="380" y="51" on="1"/>
        <pt x="380" y="1096" on="1"/>
        <pt x="193" y="1096" on="1"/>
        <pt x="193" y="1203" on="1"/>
        <pt x="717" y="1203" on="1"/>
        <pt x="717" y="1096" on="1"/>
        <pt x="564" y="1096" on="1"/>
        <pt x="564" y="28" on="1"/>
        <pt x="564" y="-168" on="0"/>
        <pt x="396" y="-343" on="0"/>
        <pt x="208" y="-343" on="1"/>
        <pt x="85" y="-343" on="0"/>
        <pt x="-39" y="-275" on="1"/>
      </contour>
    </TTGlyph>
    <TTGlyph name="K" xMin="40" yMin="0" xMax="1285" yMax="1203">
      <contour>
        <pt x="40" y="0" on="1"/>
        <pt x="40" y="106" on="1"/>
        <pt x="194" y="106" on="1"/>
        <pt x="194" y="1096" on="1"/>
        <pt x="40" y="1096" on="1"/>
        <pt x="40" y="1203" on="1"/>
        <pt x="540" y="1203" on="1"/>
        <pt x="540" y="1096" on="1"/>
        <pt x="378" y="1096" on="1"/>
        <pt x="378" y="673" on="1"/>
        <pt x="908" y="1096" on="1"/>
        <pt x="788" y="1096" on="1"/>
        <pt x="788" y="1203" on="1"/>
        <pt x="1210" y="1203" on="1"/>
        <pt x="1210" y="1096" on="1"/>
        <pt x="1076" y="1096" on="1"/>
        <pt x="534" y="664" on="1"/>
        <pt x="1148" y="106" on="1"/>
        <pt x="1284" y="106" on="1"/>
        <pt x="1284" y="0" on="1"/>
        <pt x="982" y="0" on="1"/>
        <pt x="378" y="550" on="1"/>
        <pt x="378" y="106" on="1"/>
        <pt x="540" y="106" on="1"/>
        <pt x="540" y="0" on="1"/>
      </contour>
    </TTGlyph>
    <TTGlyph name="L" xMin="81" yMin="0" xMax="1078" yMax="1203">
      <contour>
        <pt x="81" y="0" on="1"/>
        <pt x="81" y="106" on="1"/>
        <pt x="234" y="106" on="1"/>
        <pt x="234" y="1096" on="1"/>
        <pt x="81" y="1096" on="1"/>
        <pt x="81" y="1203" on="1"/>
        <pt x="571" y="1203" on="1"/>
        <pt x="571" y="1096" on="1"/>
        <pt x="418" y="1096" on="1"/>
        <pt x="418" y="123" on="1"/>
        <pt x="967" y="123" on="1"/>
        <pt x="967" y="316" on="1"/>
        <pt x="1078" y="316" on="1"/>
        <pt x="1078" y="0" on="1"/>
      </contour>
    </TTGlyph>
    <TTGlyph name="M" xMin="103" yMin="0" xMax="1719" yMax="1203">
      <contour>
        <pt x="103" y="1096" on="1"/>
        <pt x="103" y="1203" on="1"/>
        <pt x="472" y="1203" on="1"/>
        <pt x="928" y="370" on="1"/>
        <pt x="1398" y="1203" on="1"/>
        <pt x="1719" y="1203" on="1"/>
        <pt x="1719" y="1096" on="1"/>
        <pt x="1559" y="1096" on="1"/>
        <pt x="1559" y="106" on="1"/>
        <pt x="1713" y="106" on="1"/>
        <pt x="1713" y="0" on="1"/>
        <pt x="1212" y="0" on="1"/>
        <pt x="1212" y="106" on="1"/>
        <pt x="1375" y="106" on="1"/>
        <pt x="1375" y="958" on="1"/>
        <pt x="929" y="168" on="1"/>
        <pt x="825" y="168" on="1"/>
        <pt x="376" y="990" on="1"/>
        <pt x="376" y="106" on="1"/>
        <pt x="539" y="106" on="1"/>
        <pt x="539" y="0" on="1"/>
        <pt x="112" y="0" on="1"/>
        <pt x="112" y="106" on="1"/>
        <pt x="265" y="106" on="1"/>
        <pt x="265" y="1096" on="1"/>
      </contour>
    </TTGlyph>
    <TTGlyph name="N" xMin="95" yMin="-23" xMax="1455" yMax="1203">
      <contour>
        <pt x="95" y="0" on="1"/>
        <pt x="95" y="106" on="1"/>
        <pt x="257" y="106" on="1"/>
        <pt x="257" y="1096" on="1"/>
        <pt x="95" y="1096" on="1"/>
        <pt x="95" y="1203" on="1"/>
        <pt x="421" y="1203" on="1"/>
        <pt x="1182" y="295" on="1"/>
        <pt x="1182" y="1096" on="1"/>
        <pt x="1011" y="1096" on="1"/>
        <pt x="1011" y="1203" on="1"/>
        <pt x="1455" y="1203" on="1"/>
        <pt x="1455" y="1096" on="1"/>
        <pt x="1293" y="1096" on="1"/>
        <pt x="1293" y="-23" on="1"/>
        <pt x="1197" y="-23" on="1"/>
        <pt x="368" y="965" on="1"/>
        <pt x="368" y="106" on="1"/>
        <pt x="540" y="106" on="1"/>
        <pt x="540" y="0" on="1"/>
      </contour>
    </TTGlyph>
    <TTGlyph name="O" xMin="114" yMin="-34" xMax="1328" yMax="1235">
      <contour>
        <pt x="114" y="600" on="1"/>
        <pt x="114" y="894" on="0"/>
        <pt x="300" y="1073" on="1"/>
        <pt x="466" y="1235" on="0"/>
        <pt x="994" y="1235" on="0"/>
        <pt x="1328" y="886" on="0"/>
        <pt x="1328" y="600" on="1"/>
        <pt x="1328" y="307" on="0"/>
        <pt x="1142" y="127" on="1"/>
        <pt x="976" y="-34" on="0"/>
        <pt x="722" y="-34" on="1"/>
        <pt x="464" y="-34" on="0"/>
        <pt x="300" y="127" on="1"/>
        <pt x="114" y="308" on="0"/>
      </contour>
      <contour>
        <pt x="322" y="1127" on="0"/>
        <pt x="322" y="73" on="0"/>
        <pt x="720" y="73" on="1"/>
        <pt x="918" y="73" on="0"/>
        <pt x="1120" y="339" on="0"/>
        <pt x="1120" y="600" on="1"/>
        <pt x="1120" y="1127" on="0"/>
      </contour>
    </TTGlyph>
    <TTGlyph name="P" xMin="93" yMin="0" xMax="1096" yMax="1203">
      <contour>
        <pt x="93" y="0" on="1"/>
        <pt x="93" y="106" on="1"/>
        <pt x="246" y="106" on="1"/>
        <pt x="246" y="1096" on="1"/>
        <pt x="93" y="1096" on="1"/>
        <pt x="93" y="1203" on="1"/>
        <pt x="687" y="1203" on="1"/>
        <pt x="876" y="1203" on="0"/>
        <pt x="1096" y="1018" on="0"/>
        <pt x="1096" y="703" on="0"/>
        <pt x="878" y="516" on="0"/>
        <pt x="691" y="516" on="1"/>
        <pt x="430" y="516" on="1"/>
        <pt x="430" y="106" on="1"/>
        <pt x="616" y="106" on="1"/>
        <pt x="616" y="0" on="1"/>
      </contour>
      <contour>
        <pt x="430" y="624" on="1"/>
        <pt x="642" y="624" on="1"/>
        <pt x="762" y="624" on="0"/>
        <pt x="888" y="745" on="0"/>
        <pt x="888" y="975" on="0"/>
        <pt x="762" y="1096" on="0"/>
        <pt x="642" y="1096" on="1"/>
        <pt x="430" y="1096" on="1"/>
      </contour>
    </TTGlyph>
    <TTGlyph name="Q" xMin="114" yMin="-284" xMax="1328" yMax="1235">
      <contour>
        <pt x="114" y="600" on="1"/>
        <pt x="114" y="894" on="0"/>
        <pt x="300" y="1073" on="1"/>
        <pt x="466" y="1235" on="0"/>
        <pt x="994" y="1235" on="0"/>
        <pt x="1328" y="887" on="0"/>
        <pt x="1328" y="601" on="1"/>
        <pt x="1328" y="359" on="0"/>
        <pt x="1074" y="30" on="0"/>
        <pt x="850" y="-18" on="1"/>
        <pt x="938" y="-97" on="0"/>
        <pt x="1108" y="-97" on="1"/>
        <pt x="1134" y="-97" on="1"/>
        <pt x="1134" y="-283" on="1"/>
        <pt x="1134" y="-283" on="0"/>
        <pt x="1131" y="-283" on="1"/>
        <pt x="861" y="-283" on="0"/>
        <pt x="740" y="-35" on="1"/>
        <pt x="454" y="-35" on="0"/>
        <pt x="114" y="310" on="0"/>
      </contour>
      <contour>
        <pt x="322" y="1127" on="0"/>
        <pt x="322" y="73" on="0"/>
        <pt x="720" y="73" on="1"/>
        <pt x="918" y="73" on="0"/>
        <pt x="1120" y="339" on="0"/>
        <pt x="1120" y="600" on="1"/>
        <pt x="1120" y="1127" on="0"/>
      </contour>
    </TTGlyph>
    <TTGlyph name="R" xMin="31" yMin="0" xMax="1272" yMax="1203">
      <contour>
        <pt x="32" y="0" on="1"/>
        <pt x="32" y="106" on="1"/>
        <pt x="184" y="106" on="1"/>
        <pt x="184" y="1096" on="1"/>
        <pt x="32" y="1096" on="1"/>
        <pt x="32" y="1203" on="1"/>
        <pt x="672" y="1203" on="1"/>
        <pt x="858" y="1203" on="0"/>
        <pt x="1058" y="1034" on="0"/>
        <pt x="1058" y="880" on="1"/>
        <pt x="1058" y="630" on="0"/>
        <pt x="756" y="594" on="1"/>
        <pt x="876" y="565" on="0"/>
        <pt x="944" y="439" on="1"/>
        <pt x="1124" y="106" on="1"/>
        <pt x="1272" y="106" on="1"/>
        <pt x="1272" y="0" on="1"/>
        <pt x="974" y="0" on="1"/>
        <pt x="766" y="383" on="1"/>
        <pt x="712" y="487" on="0"/>
        <pt x="624" y="548" on="0"/>
        <pt x="546" y="548" on="1"/>
        <pt x="368" y="548" on="1"/>
        <pt x="368" y="106" on="1"/>
        <pt x="540" y="106" on="1"/>
        <pt x="540" y="0" on="1"/>
      </contour>
      <contour>
        <pt x="368" y="656" on="1"/>
        <pt x="610" y="656" on="1"/>
        <pt x="732" y="656" on="0"/>
        <pt x="850" y="764" on="0"/>
        <pt x="850" y="876" on="1"/>
        <pt x="850" y="989" on="0"/>
        <pt x="732" y="1096" on="0"/>
        <pt x="610" y="1096" on="1"/>
        <pt x="368" y="1096" on="1"/>
      </contour>
    </TTGlyph>
    <TTGlyph name="S" xMin="161" yMin="-35" xMax="1070" yMax="1235">
      <contour>
        <pt x="161" y="755" on="0"/>
        <pt x="161" y="1057" on="0"/>
        <pt x="387" y="1235" on="0"/>
        <pt x="765" y="1235" on="0"/>
        <pt x="1002" y="1146" on="1"/>
        <pt x="1002" y="891" on="1"/>
        <pt x="900" y="891" on="1"/>
        <pt x="886" y="1016" on="0"/>
        <pt x="815" y="1072" on="1"/>
        <pt x="744" y="1127" on="0"/>
        <pt x="612" y="1127" on="1"/>
        <pt x="610" y="1127" on="0"/>
        <pt x="607" y="1127" on="1"/>
        <pt x="337" y="1127" on="0"/>
        <pt x="337" y="938" on="1"/>
        <pt x="337" y="858" on="0"/>
        <pt x="437" y="767" on="0"/>
        <pt x="599" y="722" on="1"/>
        <pt x="747" y="678" on="1"/>
        <pt x="921" y="627" on="0"/>
        <pt x="1070" y="467" on="0"/>
        <pt x="1070" y="333" on="1"/>
        <pt x="1070" y="-35" on="0"/>
        <pt x="605" y="-35" on="1"/>
        <pt x="399" y="-35" on="0"/>
        <pt x="177" y="67" on="1"/>
        <pt x="177" y="336" on="1"/>
        <pt x="281" y="336" on="1"/>
        <pt x="281" y="202" on="0"/>
        <pt x="437" y="73" on="0"/>
        <pt x="587" y="73" on="1"/>
        <pt x="889" y="73" on="0"/>
        <pt x="889" y="280" on="1"/>
        <pt x="889" y="361" on="0"/>
        <pt x="798" y="448" on="0"/>
        <pt x="652" y="489" on="1"/>
        <pt x="493" y="536" on="1"/>
        <pt x="310" y="591" on="0"/>
      </contour>
    </TTGlyph>
    <TTGlyph name="T" xMin="20" yMin="0" xMax="1131" yMax="1203">
      <contour>
        <pt x="20" y="851" on="1"/>
        <pt x="20" y="1203" on="1"/>
        <pt x="1131" y="1203" on="1"/>
        <pt x="1131" y="851" on="1"/>
        <pt x="1020" y="851" on="1"/>
        <pt x="1020" y="1084" on="1"/>
        <pt x="667" y="1084" on="1"/>
        <pt x="667" y="106" on="1"/>
        <pt x="821" y="106" on="1"/>
        <pt x="821" y="0" on="1"/>
        <pt x="330" y="0" on="1"/>
        <pt x="330" y="106" on="1"/>
        <pt x="484" y="106" on="1"/>
        <pt x="484" y="1084" on="1"/>
        <pt x="131" y="1084" on="1"/>
        <pt x="131" y="851" on="1"/>
      </contour>
    </TTGlyph>
    <TTGlyph name="U" xMin="94" yMin="-23" xMax="1365" yMax="1203">
      <contour>
        <pt x="94" y="1096" on="1"/>
        <pt x="94" y="1203" on="1"/>
        <pt x="585" y="1203" on="1"/>
        <pt x="585" y="1096" on="1"/>
        <pt x="431" y="1096" on="1"/>
        <pt x="431" y="502" on="1"/>
        <pt x="431" y="282" on="0"/>
        <pt x="582" y="108" on="0"/>
        <pt x="766" y="108" on="1"/>
        <pt x="950" y="108" on="0"/>
        <pt x="1101" y="282" on="0"/>
        <pt x="1101" y="502" on="1"/>
        <pt x="1101" y="1096" on="1"/>
        <pt x="947" y="1096" on="1"/>
        <pt x="947" y="1203" on="1"/>
        <pt x="1365" y="1203" on="1"/>
        <pt x="1365" y="1096" on="1"/>
        <pt x="1212" y="1096" on="1"/>
        <pt x="1212" y="470" on="1"/>
        <pt x="1211" y="200" on="0"/>
        <pt x="991" y="-23" on="0"/>
        <pt x="732" y="-23" on="1"/>
        <pt x="470" y="-23" on="0"/>
        <pt x="248" y="202" on="0"/>
        <pt x="248" y="470" on="1"/>
        <pt x="248" y="1096" on="1"/>
      </contour>
    </TTGlyph>
    <TTGlyph name="V" xMin="-25" yMin="0" xMax="1262" yMax="1203">
      <contour>
        <pt x="-25" y="1096" on="1"/>
        <pt x="-25" y="1203" on="1"/>
        <pt x="429" y="1203" on="1"/>
        <pt x="429" y="1096" on="1"/>
        <pt x="307" y="1096" on="1"/>
        <pt x="668" y="217" on="1"/>
        <pt x="1031" y="1096" on="1"/>
        <pt x="892" y="1096" on="1"/>
        <pt x="892" y="1203" on="1"/>
        <pt x="1262" y="1203" on="1"/>
        <pt x="1262" y="1096" on="1"/>
        <pt x="1145" y="1096" on="1"/>
        <pt x="693" y="0" on="1"/>
        <pt x="545" y="0" on="1"/>
        <pt x="95" y="1096" on="1"/>
      </contour>
    </TTGlyph>
    <TTGlyph name="W" xMin="8" yMin="0" xMax="1797" yMax="1203">
      <contour>
        <pt x="8" y="1096" on="1"/>
        <pt x="8" y="1203" on="1"/>
        <pt x="474" y="1203" on="1"/>
        <pt x="474" y="1096" on="1"/>
        <pt x="321" y="1096" on="1"/>
        <pt x="585" y="237" on="1"/>
        <pt x="893" y="1203" on="1"/>
        <pt x="1014" y="1203" on="1"/>
        <pt x="1319" y="252" on="1"/>
        <pt x="1579" y="1096" on="1"/>
        <pt x="1431" y="1096" on="1"/>
        <pt x="1431" y="1203" on="1"/>
        <pt x="1797" y="1203" on="1"/>
        <pt x="1797" y="1096" on="1"/>
        <pt x="1679" y="1096" on="1"/>
        <pt x="1342" y="0" on="1"/>
        <pt x="1211" y="0" on="1"/>
        <pt x="911" y="934" on="1"/>
        <pt x="613" y="0" on="1"/>
        <pt x="464" y="0" on="1"/>
        <pt x="127" y="1096" on="1"/>
      </contour>
    </TTGlyph>
    <TTGlyph name="X" xMin="11" yMin="0" xMax="1244" yMax="1203">
      <contour>
        <pt x="11" y="1096" on="1"/>
        <pt x="11" y="1203" on="1"/>
        <pt x="505" y="1203" on="1"/>
        <pt x="505" y="1096" on="1"/>
        <pt x="386" y="1096" on="1"/>
        <pt x="646" y="744" on="1"/>
        <pt x="919" y="1096" on="1"/>
        <pt x="745" y="1096" on="1"/>
        <pt x="745" y="1203" on="1"/>
        <pt x="1178" y="1203" on="1"/>
        <pt x="1178" y="1096" on="1"/>
        <pt x="1043" y="1096" on="1"/>
        <pt x="706" y="661" on="1"/>
        <pt x="1116" y="106" on="1"/>
        <pt x="1244" y="106" on="1"/>
        <pt x="1244" y="0" on="1"/>
        <pt x="715" y="0" on="1"/>
        <pt x="715" y="106" on="1"/>
        <pt x="869" y="106" on="1"/>
        <pt x="580" y="498" on="1"/>
        <pt x="277" y="106" on="1"/>
        <pt x="417" y="106" on="1"/>
        <pt x="417" y="0" on="1"/>
        <pt x="14" y="0" on="1"/>
        <pt x="14" y="106" on="1"/>
        <pt x="152" y="106" on="1"/>
        <pt x="520" y="581" on="1"/>
        <pt x="140" y="1096" on="1"/>
      </contour>
    </TTGlyph>
    <TTGlyph name="Y" xMin="-21" yMin="0" xMax="1166" yMax="1203">
      <contour>
        <pt x="-20" y="1096" on="1"/>
        <pt x="-20" y="1203" on="1"/>
        <pt x="450" y="1203" on="1"/>
        <pt x="450" y="1096" on="1"/>
        <pt x="324" y="1096" on="1"/>
        <pt x="636" y="653" on="1"/>
        <pt x="934" y="1096" on="1"/>
        <pt x="806" y="1096" on="1"/>
        <pt x="806" y="1203" on="1"/>
        <pt x="1166" y="1203" on="1"/>
        <pt x="1166" y="1096" on="1"/>
        <pt x="1052" y="1096" on="1"/>
        <pt x="674" y="535" on="1"/>
        <pt x="674" y="106" on="1"/>
        <pt x="834" y="106" on="1"/>
        <pt x="834" y="0" on="1"/>
        <pt x="324" y="0" on="1"/>
        <pt x="324" y="106" on="1"/>
        <pt x="490" y="106" on="1"/>
        <pt x="490" y="528" on="1"/>
        <pt x="92" y="1096" on="1"/>
      </contour>
    </TTGlyph>
    <TTGlyph name="Z" xMin="85" yMin="0" xMax="1167" yMax="1203">
      <contour>
        <pt x="86" y="0" on="1"/>
        <pt x="86" y="72" on="1"/>
        <pt x="886" y="1080" on="1"/>
        <pt x="232" y="1080" on="1"/>
        <pt x="232" y="909" on="1"/>
        <pt x="120" y="909" on="1"/>
        <pt x="120" y="1203" on="1"/>
        <pt x="1166" y="1203" on="1"/>
        <pt x="1166" y="1131" on="1"/>
        <pt x="366" y="123" on="1"/>
        <pt x="1056" y="123" on="1"/>
        <pt x="1056" y="283" on="1"/>
        <pt x="1166" y="283" on="1"/>
        <pt x="1166" y="0" on="1"/>
      </contour>
    </TTGlyph>
    <TTGlyph name="ampersand" xMin="122" yMin="-29" xMax="1511" yMax="1225">
      <contour>
        <pt x="122" y="365" on="1"/>
        <pt x="122" y="579" on="0"/>
        <pt x="401" y="739" on="1"/>
        <pt x="311" y="837" on="0"/>
        <pt x="311" y="1072" on="0"/>
        <pt x="504" y="1225" on="0"/>
        <pt x="670" y="1225" on="1"/>
        <pt x="781" y="1225" on="0"/>
        <pt x="975" y="1157" on="1"/>
        <pt x="975" y="899" on="1"/>
        <pt x="873" y="899" on="1"/>
        <pt x="850" y="1118" on="0"/>
        <pt x="670" y="1118" on="1"/>
        <pt x="587" y="1118" on="0"/>
        <pt x="484" y="1031" on="0"/>
        <pt x="484" y="914" on="0"/>
        <pt x="550" y="820" on="0"/>
        <pt x="655" y="733" on="1"/>
        <pt x="1109" y="306" on="1"/>
        <pt x="1179" y="441" on="0"/>
        <pt x="1179" y="586" on="1"/>
        <pt x="1034" y="586" on="1"/>
        <pt x="1034" y="693" on="1"/>
        <pt x="1426" y="693" on="1"/>
        <pt x="1426" y="586" on="1"/>
        <pt x="1288" y="586" on="1"/>
        <pt x="1268" y="388" on="0"/>
        <pt x="1175" y="244" on="1"/>
        <pt x="1322" y="106" on="1"/>
        <pt x="1511" y="106" on="1"/>
        <pt x="1511" y="0" on="1"/>
        <pt x="1168" y="0" on="1"/>
        <pt x="1024" y="135" on="1"/>
        <pt x="844" y="-29" on="0"/>
        <pt x="384" y="-29" on="0"/>
        <pt x="122" y="183" on="0"/>
      </contour>
      <contour>
        <pt x="306" y="565" on="0"/>
        <pt x="306" y="270" on="0"/>
        <pt x="503" y="92" on="0"/>
        <pt x="651" y="92" on="1"/>
        <pt x="830" y="92" on="0"/>
        <pt x="954" y="200" on="1"/>
        <pt x="434" y="689" on="1"/>
      </contour>
    </TTGlyph>
    <TTGlyph name="asciicircum" xMin="217" yMin="646" xMax="1249" yMax="1203">
      <contour>
        <pt x="217" y="646" on="1"/>
        <pt x="654" y="1203" on="1"/>
        <pt x="812" y="1203" on="1"/>
        <pt x="1249" y="646" on="1"/>
        <pt x="1126" y="646" on="1"/>
        <pt x="733" y="1027" on="1"/>
        <pt x="341" y="646" on="1"/>
      </contour>
    </TTGlyph>
    <TTGlyph name="asciitilde" xMin="216" yMin="338" xMax="1249" yMax="669">
      <contour>
        <pt x="216" y="338" on="1"/>
        <pt x="216" y="488" on="1"/>
        <pt x="372" y="659" on="0"/>
        <pt x="516" y="659" on="1"/>
        <pt x="606" y="659" on="0"/>
        <pt x="884" y="518" on="0"/>
        <pt x="962" y="518" on="1"/>
        <pt x="1110" y="518" on="0"/>
        <pt x="1248" y="669" on="1"/>
        <pt x="1248" y="521" on="1"/>
        <pt x="1092" y="348" on="0"/>
        <pt x="948" y="348" on="1"/>
        <pt x="852" y="348" on="0"/>
        <pt x="696" y="430" on="1"/>
        <pt x="578" y="488" on="0"/>
        <pt x="502" y="488" on="1"/>
        <pt x="356" y="488" on="0"/>
      </contour>
    </TTGlyph>
    <TTGlyph name="asterisk" xMin="33" yMin="474" xMax="818" yMax="1225">
      <contour>
        <pt x="33" y="701" on="1"/>
        <pt x="348" y="849" on="1"/>
        <pt x="33" y="997" on="1"/>
        <pt x="94" y="1093" on="1"/>
        <pt x="364" y="918" on="1"/>
        <pt x="364" y="1225" on="1"/>
        <pt x="487" y="1225" on="1"/>
        <pt x="487" y="918" on="1"/>
        <pt x="757" y="1093" on="1"/>
        <pt x="818" y="997" on="1"/>
        <pt x="503" y="850" on="1"/>
        <pt x="818" y="701" on="1"/>
        <pt x="757" y="606" on="1"/>
        <pt x="475" y="781" on="1"/>
        <pt x="475" y="474" on="1"/>
        <pt x="376" y="474" on="1"/>
        <pt x="376" y="781" on="1"/>
        <pt x="94" y="606" on="1"/>
      </contour>
    </TTGlyph>
    <TTGlyph name="at" xMin="140" yMin="-298" xMax="1623" yMax="1172">
      <contour>
        <pt x="140" y="437" on="1"/>
        <pt x="140" y="746" on="0"/>
        <pt x="360" y="958" on="1"/>
        <pt x="467" y="1061" on="0"/>
        <pt x="756" y="1172" on="0"/>
        <pt x="1098" y="1172" on="0"/>
        <pt x="1394" y="1038" on="0"/>
        <pt x="1494" y="913" on="1"/>
        <pt x="1623" y="754" on="0"/>
        <pt x="1623" y="333" on="0"/>
        <pt x="1346" y="80" on="0"/>
        <pt x="1108" y="80" on="1"/>
        <pt x="1108" y="210" on="1"/>
        <pt x="1011" y="57" on="0"/>
        <pt x="715" y="57" on="0"/>
        <pt x="533" y="265" on="0"/>
        <pt x="533" y="432" on="1"/>
        <pt x="533" y="599" on="0"/>
        <pt x="714" y="807" on="0"/>
        <pt x="1012" y="807" on="0"/>
        <pt x="1108" y="654" on="1"/>
        <pt x="1108" y="787" on="1"/>
        <pt x="1249" y="787" on="1"/>
        <pt x="1249" y="167" on="1"/>
        <pt x="1386" y="196" on="0"/>
        <pt x="1537" y="393" on="0"/>
        <pt x="1537" y="541" on="1"/>
        <pt x="1537" y="718" on="0"/>
        <pt x="1425" y="850" on="1"/>
        <pt x="1337" y="955" on="0"/>
        <pt x="1085" y="1066" on="0"/>
        <pt x="937" y="1066" on="1"/>
        <pt x="786" y="1066" on="0"/>
        <pt x="479" y="931" on="0"/>
        <pt x="294" y="633" on="0"/>
        <pt x="294" y="437" on="1"/>
        <pt x="294" y="168" on="0"/>
        <pt x="456" y="0" on="1"/>
        <pt x="643" y="-193" on="0"/>
        <pt x="940" y="-193" on="1"/>
        <pt x="1153" y="-193" on="0"/>
        <pt x="1313" y="-81" on="1"/>
        <pt x="1356" y="-132" on="1"/>
        <pt x="1174" y="-298" on="0"/>
        <pt x="898" y="-298" on="1"/>
        <pt x="744" y="-298" on="0"/>
        <pt x="604" y="-244" on="1"/>
        <pt x="466" y="-190" on="0"/>
        <pt x="359" y="-87" on="1"/>
        <pt x="140" y="122" on="0"/>
      </contour>
      <contour>
        <pt x="694" y="554" on="0"/>
        <pt x="694" y="309" on="0"/>
        <pt x="804" y="175" on="0"/>
        <pt x="994" y="175" on="0"/>
        <pt x="1108" y="296" on="0"/>
        <pt x="1108" y="392" on="1"/>
        <pt x="1108" y="473" on="1"/>
        <pt x="1108" y="569" on="0"/>
        <pt x="993" y="689" on="0"/>
        <pt x="803" y="689" on="0"/>
      </contour>
    </TTGlyph>
    <TTGlyph name="backslash" xMin="0" yMin="-157" xMax="611" yMax="1203">
      <contour>
        <pt x="0" y="1203" on="1"/>
        <pt x="145" y="1203" on="1"/>
        <pt x="611" y="-157" on="1"/>
        <pt x="466" y="-157" on="1"/>
      </contour>
    </TTGlyph>
    <TTGlyph name="bar" xMin="264" yMin="-389" xMax="411" yMax="1261">
      <contour>
        <pt x="264" y="-389" on="1"/>
        <pt x="264" y="1261" on="1"/>
        <pt x="411" y="1261" on="1"/>
        <pt x="411" y="-389" on="1"/>
      </contour>
    </TTGlyph>
    <TTGlyph name="braceleft" xMin="256" yMin="-280" xMax="910" yMax="1264">
      <contour>
        <pt x="256" y="439" on="1"/>
        <pt x="256" y="545" on="1"/>
        <pt x="305" y="545" on="1"/>
        <pt x="419" y="545" on="0"/>
        <pt x="506" y="639" on="0"/>
        <pt x="506" y="759" on="1"/>
        <pt x="506" y="967" on="1"/>
        <pt x="506" y="1144" on="0"/>
        <pt x="648" y="1264" on="0"/>
        <pt x="858" y="1264" on="1"/>
        <pt x="910" y="1264" on="1"/>
        <pt x="910" y="1159" on="1"/>
        <pt x="855" y="1159" on="1"/>
        <pt x="742" y="1159" on="0"/>
        <pt x="673" y="1089" on="0"/>
        <pt x="673" y="977" on="1"/>
        <pt x="673" y="750" on="1"/>
        <pt x="673" y="625" on="0"/>
        <pt x="585" y="516" on="0"/>
        <pt x="470" y="493" on="1"/>
        <pt x="587" y="466" on="0"/>
        <pt x="673" y="359" on="0"/>
        <pt x="673" y="235" on="1"/>
        <pt x="673" y="7" on="1"/>
        <pt x="673" y="-105" on="0"/>
        <pt x="742" y="-174" on="0"/>
        <pt x="855" y="-174" on="1"/>
        <pt x="910" y="-174" on="1"/>
        <pt x="910" y="-280" on="1"/>
        <pt x="858" y="-280" on="1"/>
        <pt x="648" y="-280" on="0"/>
        <pt x="506" y="-161" on="0"/>
        <pt x="506" y="17" on="1"/>
        <pt x="506" y="225" on="1"/>
        <pt x="506" y="346" on="0"/>
        <pt x="419" y="439" on="0"/>
        <pt x="305" y="439" on="1"/>
      </contour>
    </TTGlyph>
    <TTGlyph name="braceright" xMin="256" yMin="-280" xMax="910" yMax="1264">
      <contour>
        <pt x="256" y="-174" on="1"/>
        <pt x="312" y="-174" on="1"/>
        <pt x="424" y="-174" on="0"/>
        <pt x="493" y="-105" on="0"/>
        <pt x="493" y="7" on="1"/>
        <pt x="493" y="235" on="1"/>
        <pt x="493" y="359" on="0"/>
        <pt x="580" y="466" on="0"/>
        <pt x="695" y="493" on="1"/>
        <pt x="580" y="517" on="0"/>
        <pt x="493" y="624" on="0"/>
        <pt x="493" y="750" on="1"/>
        <pt x="493" y="977" on="1"/>
        <pt x="493" y="1090" on="0"/>
        <pt x="425" y="1159" on="0"/>
        <pt x="312" y="1159" on="1"/>
        <pt x="256" y="1159" on="1"/>
        <pt x="256" y="1264" on="1"/>
        <pt x="309" y="1264" on="1"/>
        <pt x="518" y="1264" on="0"/>
        <pt x="659" y="1144" on="0"/>
        <pt x="659" y="967" on="1"/>
        <pt x="659" y="759" on="1"/>
        <pt x="659" y="638" on="0"/>
        <pt x="746" y="545" on="0"/>
        <pt x="860" y="545" on="1"/>
        <pt x="910" y="545" on="1"/>
        <pt x="910" y="439" on="1"/>
        <pt x="860" y="439" on="1"/>
        <pt x="746" y="439" on="0"/>
        <pt x="659" y="346" on="0"/>
        <pt x="659" y="225" on="1"/>
        <pt x="659" y="17" on="1"/>
        <pt x="659" y="-161" on="0"/>
        <pt x="518" y="-280" on="0"/>
        <pt x="309" y="-280" on="1"/>
        <pt x="256" y="-280" on="1"/>
      </contour>
    </TTGlyph>
    <TTGlyph name="bracketleft" xMin="167" yMin="-229" xMax="561" yMax="1264">
      <contour>
        <pt x="167" y="-229" on="1"/>
        <pt x="167" y="1264" on="1"/>
        <pt x="561" y="1264" on="1"/>
        <pt x="561" y="1157" on="1"/>
        <pt x="340" y="1157" on="1"/>
        <pt x="340" y="-122" on="1"/>
        <pt x="561" y="-122" on="1"/>
        <pt x="561" y="-229" on="1"/>
      </contour>
    </TTGlyph>
    <TTGlyph name="bracketright" xMin="167" yMin="-229" xMax="561" yMax="1264">
      <contour>
        <pt x="167" y="-122" on="1"/>
        <pt x="388" y="-122" on="1"/>
        <pt x="388" y="1157" on="1"/>
        <pt x="167" y="1157" on="1"/>
        <pt x="167" y="1264" on="1"/>
        <pt x="561" y="1264" on="1"/>
        <pt x="561" y="-229" on="1"/>
        <pt x="167" y="-229" on="1"/>
      </contour>
    </TTGlyph>
    <TTGlyph name="bullet" xMin="307" yMin="316" xMax="844" yMax="909">
      <contour>
        <pt x="307" y="489" on="0"/>
        <pt x="307" y="738" on="0"/>
        <pt x="463" y="909" on="0"/>
        <pt x="689" y="909" on="0"/>
        <pt x="844" y="738" on="0"/>
        <pt x="844" y="488" on="0"/>
        <pt x="690" y="316" on="0"/>
        <pt x="576" y="316" on="1"/>
        <pt x="463" y="316" on="0"/>
      </contour>
    </TTGlyph>
    <TTGlyph name="colon" xMin="212" yMin="-50" xMax="453" yMax="742">
      <contour>
        <pt x="212" y="83" on="1"/>
        <pt x="212" y="138" on="0"/>
        <pt x="247" y="178" on="1"/>
        <pt x="283" y="218" on="0"/>
        <pt x="333" y="218" on="1"/>
        <pt x="384" y="218" on="0"/>
        <pt x="453" y="140" on="0"/>
        <pt x="453" y="83" on="1"/>
        <pt x="453" y="26" on="0"/>
        <pt x="385" y="-50" on="0"/>
        <pt x="333" y="-50" on="1"/>
        <pt x="281" y="-50" on="0"/>
        <pt x="212" y="27" on="0"/>
      </contour>
      <contour>
        <pt x="212" y="608" on="1"/>
        <pt x="212" y="664" on="0"/>
        <pt x="247" y="703" on="1"/>
        <pt x="283" y="742" on="0"/>
        <pt x="385" y="742" on="0"/>
        <pt x="453" y="666" on="0"/>
        <pt x="453" y="608" on="1"/>
        <pt x="453" y="551" on="0"/>
        <pt x="385" y="475" on="0"/>
        <pt x="281" y="475" on="0"/>
        <pt x="212" y="552" on="0"/>
      </contour>
    </TTGlyph>
    <TTGlyph name="comma" xMin="136" yMin="-275" xMax="460" yMax="232">
      <contour>
        <pt x="136" y="-195" on="1"/>
        <pt x="282" y="-61" on="0"/>
        <pt x="282" y="195" on="1"/>
        <pt x="282" y="232" on="1"/>
        <pt x="460" y="232" on="1"/>
        <pt x="460" y="61" on="0"/>
        <pt x="327" y="-185" on="0"/>
        <pt x="200" y="-275" on="1"/>
      </contour>
    </TTGlyph>
    <TTGlyph name="dollar" xMin="172" yMin="-254" xMax="995" yMax="1264">
      <contour>
        <pt x="174" y="67" on="1"/>
        <pt x="174" y="285" on="1"/>
        <pt x="272" y="285" on="1"/>
        <pt x="272" y="177" on="0"/>
        <pt x="402" y="64" on="0"/>
        <pt x="527" y="64" on="1"/>
        <pt x="527" y="446" on="1"/>
        <pt x="331" y="498" on="0"/>
        <pt x="172" y="635" on="0"/>
        <pt x="172" y="879" on="0"/>
        <pt x="360" y="1048" on="0"/>
        <pt x="527" y="1048" on="1"/>
        <pt x="527" y="1264" on="1"/>
        <pt x="617" y="1264" on="1"/>
        <pt x="617" y="1048" on="1"/>
        <pt x="755" y="1048" on="0"/>
        <pt x="936" y="949" on="1"/>
        <pt x="936" y="742" on="1"/>
        <pt x="837" y="742" on="1"/>
        <pt x="827" y="833" on="0"/>
        <pt x="714" y="946" on="0"/>
        <pt x="617" y="946" on="1"/>
        <pt x="617" y="590" on="1"/>
        <pt x="827" y="535" on="0"/>
        <pt x="995" y="394" on="0"/>
        <pt x="995" y="139" on="0"/>
        <pt x="797" y="-36" on="0"/>
        <pt x="617" y="-36" on="1"/>
        <pt x="617" y="-254" on="1"/>
        <pt x="527" y="-254" on="1"/>
        <pt x="527" y="-36" on="1"/>
        <pt x="370" y="-36" on="0"/>
      </contour>
      <contour>
        <pt x="352" y="858" on="0"/>
        <pt x="352" y="725" on="0"/>
        <pt x="437" y="642" on="0"/>
        <pt x="527" y="616" on="1"/>
        <pt x="527" y="946" on="1"/>
        <pt x="444" y="946" on="0"/>
      </contour>
      <contour>
        <pt x="617" y="64" on="1"/>
        <pt x="708" y="64" on="0"/>
        <pt x="804" y="159" on="0"/>
        <pt x="804" y="230" on="1"/>
        <pt x="804" y="371" on="0"/>
        <pt x="617" y="420" on="1"/>
      </contour>
    </TTGlyph>
    <TTGlyph name="eight" xMin="137" yMin="-34" xMax="1022" yMax="1234">
      <contour>
        <pt x="138" y="324" on="1"/>
        <pt x="138" y="454" on="0"/>
        <pt x="304" y="622" on="0"/>
        <pt x="454" y="641" on="1"/>
        <pt x="322" y="663" on="0"/>
        <pt x="182" y="806" on="0"/>
        <pt x="182" y="917" on="1"/>
        <pt x="182" y="1064" on="0"/>
        <pt x="394" y="1234" on="0"/>
        <pt x="580" y="1234" on="1"/>
        <pt x="766" y="1234" on="0"/>
        <pt x="978" y="1065" on="0"/>
        <pt x="978" y="917" on="1"/>
        <pt x="978" y="806" on="0"/>
        <pt x="836" y="663" on="0"/>
        <pt x="706" y="641" on="1"/>
        <pt x="854" y="622" on="0"/>
        <pt x="1022" y="454" on="0"/>
        <pt x="1022" y="324" on="1"/>
        <pt x="1022" y="152" on="0"/>
        <pt x="792" y="-34" on="0"/>
        <pt x="368" y="-34" on="0"/>
        <pt x="138" y="152" on="0"/>
      </contour>
      <contour>
        <pt x="328" y="453" on="0"/>
        <pt x="328" y="203" on="0"/>
        <pt x="460" y="66" on="0"/>
        <pt x="580" y="66" on="1"/>
        <pt x="698" y="66" on="0"/>
        <pt x="830" y="203" on="0"/>
        <pt x="830" y="452" on="0"/>
        <pt x="698" y="590" on="0"/>
        <pt x="580" y="590" on="1"/>
        <pt x="460" y="590" on="0"/>
      </contour>
      <contour>
        <pt x="366" y="1017" on="0"/>
        <pt x="366" y="807" on="0"/>
        <pt x="480" y="690" on="0"/>
        <pt x="680" y="690" on="0"/>
        <pt x="794" y="807" on="0"/>
        <pt x="794" y="1017" on="0"/>
        <pt x="680" y="1134" on="0"/>
        <pt x="480" y="1134" on="0"/>
      </contour>
    </TTGlyph>
    <TTGlyph name="endash" xMin="90" yMin="371" xMax="769" yMax="505">
      <contour>
        <pt x="90" y="371" on="1"/>
        <pt x="90" y="505" on="1"/>
        <pt x="769" y="505" on="1"/>
        <pt x="769" y="371" on="1"/>
      </contour>
    </TTGlyph>
    <TTGlyph name="equal" xMin="217" yMin="272" xMax="1249" yMax="762">
      <contour>
        <pt x="217" y="272" on="1"/>
        <pt x="217" y="433" on="1"/>
        <pt x="1249" y="433" on="1"/>
        <pt x="1249" y="272" on="1"/>
      </contour>
      <contour>
        <pt x="217" y="601" on="1"/>
        <pt x="217" y="762" on="1"/>
        <pt x="1249" y="762" on="1"/>
        <pt x="1249" y="601" on="1"/>
      </contour>
    </TTGlyph>
    <TTGlyph name="exclam" xMin="278" yMin="-23" xMax="520" yMax="1203">
      <contour>
        <pt x="278" y="110" on="1"/>
        <pt x="278" y="166" on="0"/>
        <pt x="348" y="244" on="0"/>
        <pt x="450" y="244" on="0"/>
        <pt x="520" y="166" on="0"/>
        <pt x="520" y="54" on="0"/>
        <pt x="484" y="16" on="1"/>
        <pt x="450" y="-23" on="0"/>
        <pt x="348" y="-23" on="0"/>
        <pt x="278" y="54" on="0"/>
      </contour>
      <contour>
        <pt x="282" y="1203" on="1"/>
        <pt x="516" y="1203" on="1"/>
        <pt x="516" y="382" on="1"/>
        <pt x="342" y="382" on="1"/>
      </contour>
    </TTGlyph>
    <TTGlyph name="five" xMin="165" yMin="-23" xMax="986" yMax="1203">
      <contour>
        <pt x="166" y="78" on="1"/>
        <pt x="166" y="296" on="1"/>
        <pt x="268" y="296" on="1"/>
        <pt x="268" y="189" on="0"/>
        <pt x="408" y="78" on="0"/>
        <pt x="654" y="78" on="0"/>
        <pt x="794" y="233" on="0"/>
        <pt x="794" y="526" on="0"/>
        <pt x="658" y="683" on="0"/>
        <pt x="386" y="683" on="0"/>
        <pt x="302" y="584" on="1"/>
        <pt x="224" y="584" on="1"/>
        <pt x="224" y="1203" on="1"/>
        <pt x="880" y="1203" on="1"/>
        <pt x="880" y="1039" on="1"/>
        <pt x="320" y="1039" on="1"/>
        <pt x="320" y="710" on="1"/>
        <pt x="406" y="782" on="0"/>
        <pt x="550" y="782" on="1"/>
        <pt x="750" y="782" on="0"/>
        <pt x="986" y="566" on="0"/>
        <pt x="986" y="377" on="1"/>
        <pt x="986" y="190" on="0"/>
        <pt x="752" y="-23" on="0"/>
        <pt x="530" y="-23" on="1"/>
        <pt x="516" y="-23" on="1"/>
        <pt x="346" y="-23" on="0"/>
      </contour>
    </TTGlyph>
    <TTGlyph name="four" xMin="96" yMin="0" xMax="1204" yMax="1238">
      <contour>
        <pt x="96" y="388" on="1"/>
        <pt x="96" y="497" on="1"/>
        <pt x="738" y="1238" on="1"/>
        <pt x="976" y="1238" on="1"/>
        <pt x="975" y="495" on="1"/>
        <pt x="1204" y="495" on="1"/>
        <pt x="1204" y="388" on="1"/>
        <pt x="975" y="388" on="1"/>
        <pt x="975" y="106" on="1"/>
        <pt x="1168" y="106" on="1"/>
        <pt x="1168" y="0" on="1"/>
        <pt x="588" y="0" on="1"/>
        <pt x="588" y="106" on="1"/>
        <pt x="791" y="106" on="1"/>
        <pt x="791" y="388" on="1"/>
      </contour>
      <contour>
        <pt x="271" y="495" on="1"/>
        <pt x="791" y="495" on="1"/>
        <pt x="792" y="1091" on="1"/>
      </contour>
    </TTGlyph>
    <TTGlyph name="glyph00086" xMin="135" yMin="-34" xMax="1157" yMax="1234">
      <contour>
        <pt x="135" y="300" on="0"/>
        <pt x="135" y="900" on="0"/>
        <pt x="366" y="1234" on="0"/>
        <pt x="927" y="1234" on="0"/>
        <pt x="1157" y="900" on="0"/>
        <pt x="1157" y="300" on="0"/>
        <pt x="927" y="-34" on="0"/>
        <pt x="366" y="-34" on="0"/>
      </contour>
      <contour>
        <pt x="326" y="868" on="0"/>
        <pt x="326" y="332" on="0"/>
        <pt x="476" y="66" on="0"/>
        <pt x="647" y="66" on="1"/>
        <pt x="818" y="66" on="0"/>
        <pt x="966" y="332" on="0"/>
        <pt x="966" y="870" on="0"/>
        <pt x="903" y="1002" on="1"/>
        <pt x="820" y="1134" on="0"/>
        <pt x="647" y="1134" on="1"/>
        <pt x="476" y="1134" on="0"/>
      </contour>
    </TTGlyph>
    <TTGlyph name="glyph00087" xMin="161" yMin="0" xMax="1024" yMax="1236">
      <contour>
        <pt x="162" y="1019" on="1"/>
        <pt x="500" y="1236" on="1"/>
        <pt x="684" y="1236" on="1"/>
        <pt x="684" y="106" on="1"/>
        <pt x="1024" y="106" on="1"/>
        <pt x="1024" y="0" on="1"/>
        <pt x="166" y="0" on="1"/>
        <pt x="166" y="106" on="1"/>
        <pt x="500" y="106" on="1"/>
        <pt x="500" y="1067" on="1"/>
        <pt x="164" y="885" on="1"/>
      </contour>
    </TTGlyph>
    <TTGlyph name="glyph00088" xMin="169" yMin="0" xMax="1010" yMax="1225">
      <contour>
        <pt x="170" y="0" on="1"/>
        <pt x="170" y="107" on="1"/>
        <pt x="562" y="458" on="1"/>
        <pt x="690" y="575" on="0"/>
        <pt x="800" y="769" on="0"/>
        <pt x="800" y="994" on="0"/>
        <pt x="666" y="1126" on="0"/>
        <pt x="548" y="1126" on="1"/>
        <pt x="304" y="1126" on="0"/>
        <pt x="280" y="909" on="1"/>
        <pt x="180" y="909" on="1"/>
        <pt x="180" y="1112" on="1"/>
        <pt x="370" y="1225" on="0"/>
        <pt x="756" y="1225" on="0"/>
        <pt x="990" y="1039" on="0"/>
        <pt x="990" y="879" on="1"/>
        <pt x="990" y="698" on="0"/>
        <pt x="718" y="447" on="1"/>
        <pt x="698" y="429" on="0"/>
        <pt x="688" y="419" on="1"/>
        <pt x="402" y="164" on="1"/>
        <pt x="904" y="164" on="1"/>
        <pt x="904" y="305" on="1"/>
        <pt x="1010" y="305" on="1"/>
        <pt x="1010" y="0" on="1"/>
      </contour>
    </TTGlyph>
    <TTGlyph name="glyph00089" xMin="154" yMin="-34" xMax="1004" yMax="1234">
      <contour>
        <pt x="154" y="68" on="1"/>
        <pt x="154" y="293" on="1"/>
        <pt x="255" y="293" on="1"/>
        <pt x="255" y="68" on="0"/>
        <pt x="539" y="68" on="1"/>
        <pt x="666" y="68" on="0"/>
        <pt x="813" y="203" on="0"/>
        <pt x="813" y="460" on="0"/>
        <pt x="662" y="600" on="0"/>
        <pt x="517" y="600" on="1"/>
        <pt x="438" y="600" on="1"/>
        <pt x="438" y="703" on="1"/>
        <pt x="479" y="703" on="1"/>
        <pt x="765" y="703" on="0"/>
        <pt x="765" y="927" on="1"/>
        <pt x="765" y="1028" on="0"/>
        <pt x="647" y="1134" on="0"/>
        <pt x="537" y="1134" on="1"/>
        <pt x="294" y="1134" on="0"/>
        <pt x="294" y="880" on="1"/>
        <pt x="193" y="880" on="1"/>
        <pt x="193" y="1143" on="1"/>
        <pt x="398" y="1234" on="0"/>
        <pt x="569" y="1234" on="1"/>
        <pt x="736" y="1234" on="0"/>
        <pt x="844" y="1156" on="1"/>
        <pt x="949" y="1080" on="0"/>
        <pt x="949" y="956" on="1"/>
        <pt x="949" y="713" on="0"/>
        <pt x="664" y="658" on="1"/>
        <pt x="825" y="637" on="0"/>
        <pt x="1004" y="460" on="0"/>
        <pt x="1004" y="149" on="0"/>
        <pt x="764" y="-34" on="0"/>
        <pt x="338" y="-34" on="0"/>
      </contour>
    </TTGlyph>
    <TTGlyph name="glyph00090" xMin="36" yMin="0" xMax="1090" yMax="1238">
      <contour>
        <pt x="36" y="315" on="1"/>
        <pt x="36" y="424" on="1"/>
        <pt x="678" y="1238" on="1"/>
        <pt x="862" y="1238" on="1"/>
        <pt x="860" y="422" on="1"/>
        <pt x="1090" y="422" on="1"/>
        <pt x="1090" y="315" on="1"/>
        <pt x="860" y="315" on="1"/>
        <pt x="860" y="106" on="1"/>
        <pt x="1054" y="106" on="1"/>
        <pt x="1054" y="0" on="1"/>
        <pt x="474" y="0" on="1"/>
        <pt x="474" y="106" on="1"/>
        <pt x="676" y="106" on="1"/>
        <pt x="676" y="315" on="1"/>
      </contour>
      <contour>
        <pt x="156" y="422" on="1"/>
        <pt x="676" y="422" on="1"/>
        <pt x="678" y="1091" on="1"/>
      </contour>
    </TTGlyph>
    <TTGlyph name="glyph00091" xMin="166" yMin="-23" xMax="985" yMax="1203">
      <contour>
        <pt x="166" y="78" on="1"/>
        <pt x="166" y="296" on="1"/>
        <pt x="268" y="296" on="1"/>
        <pt x="268" y="189" on="0"/>
        <pt x="408" y="78" on="0"/>
        <pt x="655" y="78" on="0"/>
        <pt x="794" y="233" on="0"/>
        <pt x="794" y="526" on="0"/>
        <pt x="658" y="683" on="0"/>
        <pt x="386" y="683" on="0"/>
        <pt x="303" y="584" on="1"/>
        <pt x="225" y="584" on="1"/>
        <pt x="225" y="1203" on="1"/>
        <pt x="881" y="1203" on="1"/>
        <pt x="881" y="1039" on="1"/>
        <pt x="321" y="1039" on="1"/>
        <pt x="321" y="710" on="1"/>
        <pt x="407" y="782" on="0"/>
        <pt x="551" y="782" on="1"/>
        <pt x="752" y="782" on="0"/>
        <pt x="985" y="567" on="0"/>
        <pt x="985" y="380" on="1"/>
        <pt x="985" y="377" on="1"/>
        <pt x="985" y="189" on="0"/>
        <pt x="752" y="-23" on="0"/>
        <pt x="530" y="-23" on="1"/>
        <pt x="517" y="-23" on="1"/>
        <pt x="347" y="-23" on="0"/>
      </contour>
    </TTGlyph>
    <TTGlyph name="glyph00092" xMin="133" yMin="-34" xMax="1009" yMax="1234">
      <contour>
        <pt x="133" y="275" on="0"/>
        <pt x="133" y="882" on="0"/>
        <pt x="403" y="1234" on="0"/>
        <pt x="649" y="1234" on="1"/>
        <pt x="788" y="1234" on="0"/>
        <pt x="938" y="1173" on="1"/>
        <pt x="938" y="927" on="1"/>
        <pt x="836" y="927" on="1"/>
        <pt x="836" y="1028" on="0"/>
        <pt x="721" y="1134" on="0"/>
        <pt x="633" y="1134" on="1"/>
        <pt x="476" y="1134" on="0"/>
        <pt x="320" y="898" on="0"/>
        <pt x="320" y="653" on="1"/>
        <pt x="431" y="792" on="0"/>
        <pt x="794" y="792" on="0"/>
        <pt x="1009" y="571" on="0"/>
        <pt x="1009" y="191" on="0"/>
        <pt x="773" y="-34" on="0"/>
        <pt x="362" y="-34" on="0"/>
      </contour>
      <contour>
        <pt x="347" y="536" on="0"/>
        <pt x="347" y="233" on="0"/>
        <pt x="469" y="66" on="0"/>
        <pt x="582" y="66" on="1"/>
        <pt x="695" y="66" on="0"/>
        <pt x="818" y="228" on="0"/>
        <pt x="818" y="379" on="1"/>
        <pt x="818" y="530" on="0"/>
        <pt x="696" y="692" on="0"/>
        <pt x="467" y="692" on="0"/>
      </contour>
    </TTGlyph>
    <TTGlyph name="glyph00093" xMin="160" yMin="0" xMax="1004" yMax="1203">
      <contour>
        <pt x="160" y="896" on="1"/>
        <pt x="160" y="1203" on="1"/>
        <pt x="1004" y="1203" on="1"/>
        <pt x="1004" y="1101" on="1"/>
        <pt x="508" y="0" on="1"/>
        <pt x="370" y="0" on="1"/>
        <pt x="838" y="1039" on="1"/>
        <pt x="266" y="1039" on="1"/>
        <pt x="266" y="896" on="1"/>
      </contour>
    </TTGlyph>
    <TTGlyph name="glyph00094" xMin="137" yMin="-34" xMax="1022" yMax="1234">
      <contour>
        <pt x="138" y="324" on="1"/>
        <pt x="138" y="454" on="0"/>
        <pt x="304" y="622" on="0"/>
        <pt x="454" y="641" on="1"/>
        <pt x="322" y="663" on="0"/>
        <pt x="182" y="806" on="0"/>
        <pt x="182" y="917" on="1"/>
        <pt x="182" y="1064" on="0"/>
        <pt x="394" y="1234" on="0"/>
        <pt x="580" y="1234" on="1"/>
        <pt x="766" y="1234" on="0"/>
        <pt x="978" y="1065" on="0"/>
        <pt x="978" y="917" on="1"/>
        <pt x="978" y="806" on="0"/>
        <pt x="836" y="663" on="0"/>
        <pt x="706" y="641" on="1"/>
        <pt x="854" y="622" on="0"/>
        <pt x="1022" y="454" on="0"/>
        <pt x="1022" y="324" on="1"/>
        <pt x="1022" y="152" on="0"/>
        <pt x="792" y="-34" on="0"/>
        <pt x="368" y="-34" on="0"/>
        <pt x="138" y="152" on="0"/>
      </contour>
      <contour>
        <pt x="328" y="453" on="0"/>
        <pt x="328" y="203" on="0"/>
        <pt x="460" y="66" on="0"/>
        <pt x="580" y="66" on="1"/>
        <pt x="698" y="66" on="0"/>
        <pt x="830" y="203" on="0"/>
        <pt x="830" y="452" on="0"/>
        <pt x="698" y="590" on="0"/>
        <pt x="580" y="590" on="1"/>
        <pt x="460" y="590" on="0"/>
      </contour>
      <contour>
        <pt x="366" y="1017" on="0"/>
        <pt x="366" y="807" on="0"/>
        <pt x="480" y="690" on="0"/>
        <pt x="680" y="690" on="0"/>
        <pt x="794" y="807" on="0"/>
        <pt x="794" y="1017" on="0"/>
        <pt x="680" y="1134" on="0"/>
        <pt x="480" y="1134" on="0"/>
      </contour>
    </TTGlyph>
    <TTGlyph name="glyph00095" xMin="133" yMin="-34" xMax="1009" yMax="1234">
      <contour>
        <pt x="134" y="630" on="0"/>
        <pt x="134" y="1009" on="0"/>
        <pt x="370" y="1234" on="0"/>
        <pt x="780" y="1234" on="0"/>
        <pt x="1008" y="925" on="0"/>
        <pt x="1008" y="318" on="0"/>
        <pt x="738" y="-34" on="0"/>
        <pt x="494" y="-34" on="1"/>
        <pt x="354" y="-34" on="0"/>
        <pt x="204" y="27" on="1"/>
        <pt x="204" y="275" on="1"/>
        <pt x="306" y="275" on="1"/>
        <pt x="306" y="174" on="0"/>
        <pt x="420" y="66" on="0"/>
        <pt x="508" y="66" on="1"/>
        <pt x="666" y="66" on="0"/>
        <pt x="822" y="302" on="0"/>
        <pt x="822" y="548" on="1"/>
        <pt x="710" y="409" on="0"/>
        <pt x="348" y="409" on="0"/>
      </contour>
      <contour>
        <pt x="324" y="821" on="1"/>
        <pt x="324" y="670" on="0"/>
        <pt x="446" y="508" on="0"/>
        <pt x="560" y="508" on="1"/>
        <pt x="674" y="508" on="0"/>
        <pt x="796" y="665" on="0"/>
        <pt x="796" y="967" on="0"/>
        <pt x="674" y="1134" on="0"/>
        <pt x="446" y="1134" on="0"/>
        <pt x="324" y="973" on="0"/>
      </contour>
    </TTGlyph>
    <TTGlyph name="grave" xMin="283" yMin="978" xMax="652" yMax="1355">
      <contour>
        <pt x="284" y="1355" on="1"/>
        <pt x="442" y="1355" on="1"/>
        <pt x="652" y="978" on="1"/>
        <pt x="558" y="978" on="1"/>
      </contour>
    </TTGlyph>
    <TTGlyph name="greater" xMin="217" yMin="60" xMax="1249" yMax="974">
      <contour>
        <pt x="217" y="60" on="1"/>
        <pt x="217" y="228" on="1"/>
        <pt x="1013" y="517" on="1"/>
        <pt x="217" y="807" on="1"/>
        <pt x="217" y="974" on="1"/>
        <pt x="1249" y="600" on="1"/>
        <pt x="1249" y="435" on="1"/>
      </contour>
    </TTGlyph>
    <TTGlyph name="hyphen" xMin="90" yMin="363" xMax="553" yMax="520">
      <contour>
        <pt x="90" y="363" on="1"/>
        <pt x="90" y="520" on="1"/>
        <pt x="553" y="520" on="1"/>
        <pt x="553" y="363" on="1"/>
      </contour>
    </TTGlyph>
    <TTGlyph name="less" xMin="217" yMin="60" xMax="1249" yMax="975">
      <contour>
        <pt x="217" y="435" on="1"/>
        <pt x="217" y="600" on="1"/>
        <pt x="1249" y="975" on="1"/>
        <pt x="1249" y="804" on="1"/>
        <pt x="456" y="516" on="1"/>
        <pt x="1249" y="229" on="1"/>
        <pt x="1249" y="60" on="1"/>
      </contour>
    </TTGlyph>
    <TTGlyph name="nine" xMin="133" yMin="-34" xMax="1009" yMax="1234">
      <contour>
        <pt x="134" y="685" on="0"/>
        <pt x="134" y="1009" on="0"/>
        <pt x="370" y="1234" on="0"/>
        <pt x="780" y="1234" on="0"/>
        <pt x="1008" y="925" on="0"/>
        <pt x="1008" y="318" on="0"/>
        <pt x="738" y="-34" on="0"/>
        <pt x="494" y="-34" on="1"/>
        <pt x="346" y="-34" on="0"/>
        <pt x="196" y="27" on="1"/>
        <pt x="196" y="238" on="1"/>
        <pt x="298" y="238" on="1"/>
        <pt x="298" y="137" on="0"/>
        <pt x="412" y="66" on="0"/>
        <pt x="500" y="66" on="1"/>
        <pt x="658" y="66" on="0"/>
        <pt x="822" y="357" on="0"/>
        <pt x="822" y="603" on="1"/>
        <pt x="710" y="464" on="0"/>
        <pt x="348" y="464" on="0"/>
      </contour>
      <contour>
        <pt x="324" y="821" on="1"/>
        <pt x="324" y="725" on="0"/>
        <pt x="446" y="563" on="0"/>
        <pt x="560" y="563" on="1"/>
        <pt x="674" y="563" on="0"/>
        <pt x="796" y="720" on="0"/>
        <pt x="796" y="967" on="0"/>
        <pt x="674" y="1134" on="0"/>
        <pt x="446" y="1134" on="0"/>
        <pt x="324" y="973" on="0"/>
      </contour>
    </TTGlyph>
    <TTGlyph name="numbersign" xMin="157" yMin="0" xMax="1385" yMax="1185">
      <contour>
        <pt x="158" y="306" on="1"/>
        <pt x="158" y="459" on="1"/>
        <pt x="452" y="459" on="1"/>
        <pt x="528" y="697" on="1"/>
        <pt x="250" y="697" on="1"/>
        <pt x="250" y="851" on="1"/>
        <pt x="562" y="851" on="1"/>
        <pt x="658" y="1185" on="1"/>
        <pt x="812" y="1185" on="1"/>
        <pt x="720" y="851" on="1"/>
        <pt x="974" y="851" on="1"/>
        <pt x="1066" y="1185" on="1"/>
        <pt x="1222" y="1185" on="1"/>
        <pt x="1126" y="851" on="1"/>
        <pt x="1384" y="851" on="1"/>
        <pt x="1384" y="697" on="1"/>
        <pt x="1090" y="697" on="1"/>
        <pt x="1018" y="459" on="1"/>
        <pt x="1292" y="459" on="1"/>
        <pt x="1292" y="306" on="1"/>
        <pt x="984" y="306" on="1"/>
        <pt x="892" y="0" on="1"/>
        <pt x="736" y="0" on="1"/>
        <pt x="832" y="306" on="1"/>
        <pt x="574" y="306" on="1"/>
        <pt x="478" y="0" on="1"/>
        <pt x="324" y="0" on="1"/>
        <pt x="416" y="306" on="1"/>
      </contour>
      <contour>
        <pt x="608" y="459" on="1"/>
        <pt x="868" y="459" on="1"/>
        <pt x="940" y="697" on="1"/>
        <pt x="684" y="697" on="1"/>
      </contour>
    </TTGlyph>
    <TTGlyph name="one" xMin="161" yMin="0" xMax="1024" yMax="1236">
      <contour>
        <pt x="162" y="1019" on="1"/>
        <pt x="500" y="1236" on="1"/>
        <pt x="684" y="1236" on="1"/>
        <pt x="684" y="106" on="1"/>
        <pt x="1024" y="106" on="1"/>
        <pt x="1024" y="0" on="1"/>
        <pt x="166" y="0" on="1"/>
        <pt x="166" y="106" on="1"/>
        <pt x="500" y="106" on="1"/>
        <pt x="500" y="1067" on="1"/>
        <pt x="164" y="885" on="1"/>
      </contour>
    </TTGlyph>
    <TTGlyph name="parenleft" xMin="154" yMin="-257" xMax="570" yMax="1254">
      <contour>
        <pt x="154" y="498" on="1"/>
        <pt x="154" y="1076" on="0"/>
        <pt x="570" y="1254" on="1"/>
        <pt x="570" y="1175" on="1"/>
        <pt x="446" y="1090" on="0"/>
        <pt x="338" y="779" on="0"/>
        <pt x="338" y="218" on="0"/>
        <pt x="446" y="-93" on="0"/>
        <pt x="570" y="-178" on="1"/>
        <pt x="570" y="-257" on="1"/>
        <pt x="154" y="-79" on="0"/>
      </contour>
    </TTGlyph>
    <TTGlyph name="parenright" xMin="153" yMin="-257" xMax="571" yMax="1254">
      <contour>
        <pt x="154" y="-178" on="1"/>
        <pt x="278" y="-93" on="0"/>
        <pt x="386" y="218" on="0"/>
        <pt x="386" y="779" on="0"/>
        <pt x="278" y="1089" on="0"/>
        <pt x="154" y="1175" on="1"/>
        <pt x="154" y="1254" on="1"/>
        <pt x="570" y="1077" on="0"/>
        <pt x="570" y="498" on="1"/>
        <pt x="570" y="-80" on="0"/>
        <pt x="154" y="-257" on="1"/>
      </contour>
    </TTGlyph>
    <TTGlyph name="percent" xMin="113" yMin="-34" xMax="1593" yMax="1234">
      <contour>
        <pt x="113" y="742" on="0"/>
        <pt x="113" y="1047" on="0"/>
        <pt x="276" y="1233" on="0"/>
        <pt x="413" y="1234" on="1"/>
        <pt x="413" y="1234" on="0"/>
        <pt x="424" y="1234" on="1"/>
        <pt x="550" y="1234" on="0"/>
        <pt x="715" y="1052" on="0"/>
        <pt x="715" y="740" on="0"/>
        <pt x="552" y="560" on="0"/>
        <pt x="413" y="560" on="1"/>
        <pt x="274" y="560" on="0"/>
      </contour>
      <contour>
        <pt x="257" y="1012" on="0"/>
        <pt x="257" y="782" on="0"/>
        <pt x="342" y="651" on="0"/>
        <pt x="486" y="651" on="0"/>
        <pt x="570" y="782" on="0"/>
        <pt x="570" y="896" on="1"/>
        <pt x="570" y="1011" on="0"/>
        <pt x="487" y="1140" on="0"/>
        <pt x="341" y="1140" on="0"/>
      </contour>
      <contour>
        <pt x="384" y="-34" on="1"/>
        <pt x="1185" y="1234" on="1"/>
        <pt x="1322" y="1234" on="1"/>
        <pt x="521" y="-34" on="1"/>
      </contour>
      <contour>
        <pt x="991" y="148" on="0"/>
        <pt x="991" y="457" on="0"/>
        <pt x="1154" y="638" on="0"/>
        <pt x="1431" y="638" on="0"/>
        <pt x="1593" y="456" on="0"/>
        <pt x="1593" y="302" on="1"/>
        <pt x="1593" y="148" on="0"/>
        <pt x="1430" y="-34" on="0"/>
        <pt x="1153" y="-34" on="0"/>
      </contour>
      <contour>
        <pt x="1136" y="417" on="0"/>
        <pt x="1136" y="189" on="0"/>
        <pt x="1220" y="60" on="0"/>
        <pt x="1293" y="60" on="1"/>
        <pt x="1366" y="60" on="0"/>
        <pt x="1448" y="189" on="0"/>
        <pt x="1448" y="416" on="0"/>
        <pt x="1365" y="547" on="0"/>
        <pt x="1220" y="547" on="0"/>
      </contour>
    </TTGlyph>
    <TTGlyph name="period" xMin="192" yMin="-50" xMax="434" yMax="218">
      <contour>
        <pt x="192" y="83" on="1"/>
        <pt x="192" y="139" on="0"/>
        <pt x="262" y="218" on="0"/>
        <pt x="364" y="218" on="0"/>
        <pt x="434" y="140" on="0"/>
        <pt x="434" y="28" on="0"/>
        <pt x="364" y="-50" on="0"/>
        <pt x="262" y="-50" on="0"/>
        <pt x="192" y="27" on="0"/>
      </contour>
    </TTGlyph>
    <TTGlyph name="plus" xMin="217" yMin="0" xMax="1266" yMax="1036">
      <contour>
        <pt x="217" y="422" on="1"/>
        <pt x="217" y="584" on="1"/>
        <pt x="669" y="584" on="1"/>
        <pt x="669" y="1036" on="1"/>
        <pt x="814" y="1036" on="1"/>
        <pt x="814" y="584" on="1"/>
        <pt x="1266" y="584" on="1"/>
        <pt x="1266" y="422" on="1"/>
        <pt x="814" y="422" on="1"/>
        <pt x="814" y="0" on="1"/>
        <pt x="669" y="0" on="1"/>
        <pt x="669" y="422" on="1"/>
      </contour>
    </TTGlyph>
    <TTGlyph name="question" xMin="119" yMin="-50" xMax="879" yMax="1234">
      <contour>
        <pt x="119" y="937" on="1"/>
        <pt x="119" y="1140" on="1"/>
        <pt x="307" y="1234" on="0"/>
        <pt x="652" y="1234" on="0"/>
        <pt x="879" y="1063" on="0"/>
        <pt x="879" y="917" on="1"/>
        <pt x="879" y="620" on="0"/>
        <pt x="488" y="538" on="1"/>
        <pt x="488" y="341" on="1"/>
        <pt x="377" y="341" on="1"/>
        <pt x="377" y="595" on="1"/>
        <pt x="688" y="661" on="0"/>
        <pt x="688" y="906" on="1"/>
        <pt x="688" y="1012" on="0"/>
        <pt x="560" y="1134" on="0"/>
        <pt x="456" y="1134" on="1"/>
        <pt x="243" y="1134" on="0"/>
        <pt x="207" y="937" on="1"/>
      </contour>
      <contour>
        <pt x="312" y="83" on="1"/>
        <pt x="312" y="139" on="0"/>
        <pt x="382" y="218" on="0"/>
        <pt x="483" y="218" on="0"/>
        <pt x="554" y="140" on="0"/>
        <pt x="554" y="28" on="0"/>
        <pt x="483" y="-50" on="0"/>
        <pt x="381" y="-50" on="0"/>
        <pt x="312" y="27" on="0"/>
      </contour>
    </TTGlyph>
    <TTGlyph name="quotedbl" xMin="201" yMin="648" xMax="668" yMax="1203">
      <contour>
        <pt x="201" y="648" on="1"/>
        <pt x="201" y="1203" on="1"/>
        <pt x="345" y="1203" on="1"/>
        <pt x="345" y="648" on="1"/>
      </contour>
      <contour>
        <pt x="524" y="648" on="1"/>
        <pt x="524" y="1203" on="1"/>
        <pt x="668" y="1203" on="1"/>
        <pt x="668" y="648" on="1"/>
      </contour>
    </TTGlyph>
    <TTGlyph name="quotedblleft" xMin="156" yMin="767" xMax="786" yMax="1274">
      <contour>
        <pt x="156" y="767" on="1"/>
        <pt x="156" y="941" on="0"/>
        <pt x="267" y="1183" on="0"/>
        <pt x="386" y="1274" on="1"/>
        <pt x="449" y="1194" on="1"/>
        <pt x="387" y="1130" on="0"/>
        <pt x="331" y="959" on="0"/>
        <pt x="331" y="830" on="1"/>
        <pt x="331" y="767" on="1"/>
      </contour>
      <contour>
        <pt x="493" y="767" on="1"/>
        <pt x="493" y="942" on="0"/>
        <pt x="604" y="1183" on="0"/>
        <pt x="723" y="1274" on="1"/>
        <pt x="786" y="1194" on="1"/>
        <pt x="725" y="1130" on="0"/>
        <pt x="669" y="959" on="0"/>
        <pt x="669" y="830" on="1"/>
        <pt x="669" y="767" on="1"/>
      </contour>
    </TTGlyph>
    <TTGlyph name="quotedblright" xMin="155" yMin="697" xMax="786" yMax="1203">
      <contour>
        <pt x="155" y="777" on="1"/>
        <pt x="218" y="840" on="0"/>
        <pt x="274" y="1012" on="0"/>
        <pt x="274" y="1142" on="1"/>
        <pt x="274" y="1203" on="1"/>
        <pt x="449" y="1203" on="1"/>
        <pt x="449" y="1030" on="0"/>
        <pt x="338" y="788" on="0"/>
        <pt x="218" y="697" on="1"/>
      </contour>
      <contour>
        <pt x="494" y="777" on="1"/>
        <pt x="555" y="840" on="0"/>
        <pt x="611" y="1011" on="0"/>
        <pt x="611" y="1140" on="1"/>
        <pt x="611" y="1203" on="1"/>
        <pt x="786" y="1203" on="1"/>
        <pt x="786" y="1028" on="0"/>
        <pt x="675" y="788" on="0"/>
        <pt x="557" y="697" on="1"/>
      </contour>
    </TTGlyph>
    <TTGlyph name="quoteleft" xMin="155" yMin="767" xMax="449" yMax="1274">
      <contour>
        <pt x="156" y="767" on="1"/>
        <pt x="156" y="941" on="0"/>
        <pt x="266" y="1183" on="0"/>
        <pt x="386" y="1274" on="1"/>
        <pt x="448" y="1194" on="1"/>
        <pt x="386" y="1130" on="0"/>
        <pt x="330" y="959" on="0"/>
        <pt x="330" y="830" on="1"/>
        <pt x="330" y="767" on="1"/>
      </contour>
    </TTGlyph>
    <TTGlyph name="quoteright" xMin="154" yMin="697" xMax="449" yMax="1203">
      <contour>
        <pt x="154" y="777" on="1"/>
        <pt x="218" y="840" on="0"/>
        <pt x="274" y="1012" on="0"/>
        <pt x="274" y="1142" on="1"/>
        <pt x="274" y="1203" on="1"/>
        <pt x="448" y="1203" on="1"/>
        <pt x="448" y="1030" on="0"/>
        <pt x="338" y="788" on="0"/>
        <pt x="218" y="697" on="1"/>
      </contour>
    </TTGlyph>
    <TTGlyph name="quotesingle" xMin="202" yMin="648" xMax="346" yMax="1203">
      <contour>
        <pt x="202" y="648" on="1"/>
        <pt x="202" y="1203" on="1"/>
        <pt x="346" y="1203" on="1"/>
        <pt x="346" y="648" on="1"/>
      </contour>
    </TTGlyph>
    <TTGlyph name="semicolon" xMin="140" yMin="-252" xMax="499" yMax="742">
      <contour>
        <pt x="140" y="-187" on="1"/>
        <pt x="294" y="-80" on="0"/>
        <pt x="294" y="120" on="1"/>
        <pt x="294" y="156" on="1"/>
        <pt x="472" y="156" on="1"/>
        <pt x="472" y="18" on="0"/>
        <pt x="336" y="-179" on="0"/>
        <pt x="206" y="-252" on="1"/>
      </contour>
      <contour>
        <pt x="258" y="608" on="1"/>
        <pt x="257" y="609" on="0"/>
        <pt x="257" y="611" on="1"/>
        <pt x="257" y="663" on="0"/>
        <pt x="330" y="742" on="0"/>
        <pt x="378" y="742" on="1"/>
        <pt x="430" y="742" on="0"/>
        <pt x="498" y="664" on="0"/>
        <pt x="498" y="552" on="0"/>
        <pt x="428" y="475" on="0"/>
        <pt x="378" y="475" on="1"/>
        <pt x="329" y="475" on="0"/>
        <pt x="258" y="554" on="0"/>
      </contour>
    </TTGlyph>
    <TTGlyph name="seven" xMin="160" yMin="0" xMax="1004" yMax="1203">
      <contour>
        <pt x="160" y="896" on="1"/>
        <pt x="160" y="1203" on="1"/>
        <pt x="1004" y="1203" on="1"/>
        <pt x="1004" y="1101" on="1"/>
        <pt x="508" y="0" on="1"/>
        <pt x="370" y="0" on="1"/>
        <pt x="838" y="1039" on="1"/>
        <pt x="266" y="1039" on="1"/>
        <pt x="266" y="896" on="1"/>
      </contour>
    </TTGlyph>
    <TTGlyph name="six" xMin="133" yMin="-34" xMax="1009" yMax="1234">
      <contour>
        <pt x="133" y="275" on="0"/>
        <pt x="133" y="882" on="0"/>
        <pt x="403" y="1234" on="0"/>
        <pt x="649" y="1234" on="1"/>
        <pt x="788" y="1234" on="0"/>
        <pt x="938" y="1173" on="1"/>
        <pt x="938" y="927" on="1"/>
        <pt x="836" y="927" on="1"/>
        <pt x="836" y="1028" on="0"/>
        <pt x="721" y="1134" on="0"/>
        <pt x="633" y="1134" on="1"/>
        <pt x="476" y="1134" on="0"/>
        <pt x="320" y="898" on="0"/>
        <pt x="320" y="653" on="1"/>
        <pt x="431" y="792" on="0"/>
        <pt x="794" y="792" on="0"/>
        <pt x="1009" y="571" on="0"/>
        <pt x="1009" y="191" on="0"/>
        <pt x="773" y="-34" on="0"/>
        <pt x="362" y="-34" on="0"/>
      </contour>
      <contour>
        <pt x="347" y="536" on="0"/>
        <pt x="347" y="233" on="0"/>
        <pt x="469" y="66" on="0"/>
        <pt x="582" y="66" on="1"/>
        <pt x="695" y="66" on="0"/>
        <pt x="818" y="228" on="0"/>
        <pt x="818" y="379" on="1"/>
        <pt x="818" y="530" on="0"/>
        <pt x="696" y="692" on="0"/>
        <pt x="467" y="692" on="0"/>
      </contour>
    </TTGlyph>
    <TTGlyph name="slash" xMin="0" yMin="-157" xMax="611" yMax="1203">
      <contour>
        <pt x="0" y="-157" on="1"/>
        <pt x="466" y="1203" on="1"/>
        <pt x="611" y="1203" on="1"/>
        <pt x="145" y="-157" on="1"/>
      </contour>
    </TTGlyph>
    <TTGlyph name="three" xMin="154" yMin="-34" xMax="1004" yMax="1234">
      <contour>
        <pt x="154" y="68" on="1"/>
        <pt x="154" y="293" on="1"/>
        <pt x="255" y="293" on="1"/>
        <pt x="255" y="68" on="0"/>
        <pt x="539" y="68" on="1"/>
        <pt x="666" y="68" on="0"/>
        <pt x="813" y="203" on="0"/>
        <pt x="813" y="460" on="0"/>
        <pt x="662" y="600" on="0"/>
        <pt x="517" y="600" on="1"/>
        <pt x="438" y="600" on="1"/>
        <pt x="438" y="703" on="1"/>
        <pt x="479" y="703" on="1"/>
        <pt x="765" y="703" on="0"/>
        <pt x="765" y="927" on="1"/>
        <pt x="765" y="1028" on="0"/>
        <pt x="647" y="1134" on="0"/>
        <pt x="537" y="1134" on="1"/>
        <pt x="294" y="1134" on="0"/>
        <pt x="294" y="880" on="1"/>
        <pt x="193" y="880" on="1"/>
        <pt x="193" y="1143" on="1"/>
        <pt x="398" y="1234" on="0"/>
        <pt x="569" y="1234" on="1"/>
        <pt x="736" y="1234" on="0"/>
        <pt x="844" y="1156" on="1"/>
        <pt x="949" y="1080" on="0"/>
        <pt x="949" y="956" on="1"/>
        <pt x="949" y="713" on="0"/>
        <pt x="664" y="658" on="1"/>
        <pt x="825" y="637" on="0"/>
        <pt x="1004" y="460" on="0"/>
        <pt x="1004" y="149" on="0"/>
        <pt x="764" y="-34" on="0"/>
        <pt x="338" y="-34" on="0"/>
      </contour>
    </TTGlyph>
    <TTGlyph name="two" xMin="169" yMin="0" xMax="1010" yMax="1225">
      <contour>
        <pt x="170" y="0" on="1"/>
        <pt x="170" y="107" on="1"/>
        <pt x="562" y="458" on="1"/>
        <pt x="690" y="575" on="0"/>
        <pt x="800" y="769" on="0"/>
        <pt x="800" y="994" on="0"/>
        <pt x="666" y="1126" on="0"/>
        <pt x="548" y="1126" on="1"/>
        <pt x="304" y="1126" on="0"/>
        <pt x="280" y="909" on="1"/>
        <pt x="180" y="909" on="1"/>
        <pt x="180" y="1112" on="1"/>
        <pt x="370" y="1225" on="0"/>
        <pt x="756" y="1225" on="0"/>
        <pt x="990" y="1039" on="0"/>
        <pt x="990" y="879" on="1"/>
        <pt x="990" y="698" on="0"/>
        <pt x="718" y="447" on="1"/>
        <pt x="698" y="429" on="0"/>
        <pt x="688" y="419" on="1"/>
        <pt x="402" y="164" on="1"/>
        <pt x="904" y="164" on="1"/>
        <pt x="904" y="305" on="1"/>
        <pt x="1010" y="305" on="1"/>
        <pt x="1010" y="0" on="1"/>
      </contour>
    </TTGlyph>
    <TTGlyph name="underscore" xMin="0" yMin="-398" xMax="824" yMax="-317">
      <contour>
        <pt x="0" y="-317" on="1"/>
        <pt x="824" y="-317" on="1"/>
        <pt x="824" y="-398" on="1"/>
        <pt x="0" y="-398" on="1"/>
      </contour>
    </TTGlyph>
    <TTGlyph name="uni00AD" xMin="90" yMin="363" xMax="553" yMax="520">
      <contour>
        <pt x="90" y="363" on="1"/>
        <pt x="90" y="520" on="1"/>
        <pt x="553" y="520" on="1"/>
        <pt x="553" y="363" on="1"/>
      </contour>
    </TTGlyph>
    <TTGlyph name="uni2010" xMin="90" yMin="363" xMax="553" yMax="520">
      <contour>
        <pt x="90" y="363" on="1"/>
        <pt x="90" y="520" on="1"/>
        <pt x="553" y="520" on="1"/>
        <pt x="553" y="363" on="1"/>
      </contour>
    </TTGlyph>
    <TTGlyph name="uni2023" xMin="267" yMin="310" xMax="877" yMax="916">
      <contour>
        <pt x="267" y="310" on="1"/>
        <pt x="267" y="916" on="1"/>
        <pt x="877" y="613" on="1"/>
      </contour>
    </TTGlyph>
    <TTGlyph name="zero" xMin="135" yMin="-34" xMax="1157" yMax="1234">
      <contour>
        <pt x="135" y="300" on="0"/>
        <pt x="135" y="900" on="0"/>
        <pt x="366" y="1234" on="0"/>
        <pt x="927" y="1234" on="0"/>
        <pt x="1157" y="900" on="0"/>
        <pt x="1157" y="300" on="0"/>
        <pt x="927" y="-34" on="0"/>
        <pt x="366" y="-34" on="0"/>
      </contour>
      <contour>
        <pt x="326" y="868" on="0"/>
        <pt x="326" y="332" on="0"/>
        <pt x="476" y="66" on="0"/>
        <pt x="647" y="66" on="1"/>
        <pt x="818" y="66" on="0"/>
        <pt x="966" y="332" on="0"/>
        <pt x="966" y="870" on="0"/>
        <pt x="903" y="1002" on="1"/>
        <pt x="820" y="1134" on="0"/>
        <pt x="647" y="1134" on="1"/>
        <pt x="476" y="1134" on="0"/>
      </contour>
    </TTGlyph>
</ttFont>
